{
.appVersion = "3108";
.formatVersion = 3;
axes = (
{
name = Weight;
tag = wght;
}
);
classes = (
{
code = "aleph-chor ayin-chor beth-chor daleth-chor gimel-chor he-chor heth-chor kaph-chor lamedh-chor mem-chor nun-chor pe-chor resh-chor samekh-chor shin-chor taw-chor waw-chor yodh-chor zayin-chor he-chor.cv01 mem-chor.cv01 shin-chor.cv01 taw-chor.cv01 aleph-chor.left beth-chor.left gimel-chor.left kaph-chor.left lamedh-chor.left nun-chor.left pe-chor.left samekh-chor.left taw-chor.left zayin-chor.left aleph-chor.middle beth-chor.middle gimel-chor.middle kaph-chor.middle lamedh-chor.middle nun-chor.middle pe-chor.middle samekh-chor.middle taw-chor.middle zayin-chor.middle aleph-chor.right beth-chor.right daleth-chor.right gimel-chor.right he-chor.right heth-chor.right kaph-chor.right lamedh-chor.right mem-chor.right nun-chor.right pe-chor.right resh-chor.right samekh-chor.right shin-chor.right taw-chor.right waw-chor.right yodh-chor.right zayin-chor.right aleph-chor.left.cv01 aleph-chor.middle.cv01 he-chor.right.cv01 aleph-chor.middle.cv02 
";
name = AllLetters;
},
{
code = "aleph-chor ayin-chor beth-chor daleth-chor gimel-chor he-chor heth-chor kaph-chor lamedh-chor mem-chor nun-chor pe-chor resh-chor samekh-chor shin-chor taw-chor waw-chor yodh-chor zayin-chor he-chor mem-chor shin-chor taw-chor aleph-chor beth-chor gimel-chor kaph-chor lamedh-chor nun-chor pe-chor samekh-chor taw-chor zayin-chor aleph-chor beth-chor gimel-chor kaph-chor lamedh-chor nun-chor pe-chor samekh-chor taw-chor zayin-chor aleph-chor beth-chor daleth-chor gimel-chor he-chor heth-chor kaph-chor lamedh-chor mem-chor nun-chor pe-chor resh-chor samekh-chor shin-chor taw-chor waw-chor yodh-chor zayin-chor aleph-chor aleph-chor he-chor aleph-chor 
";
name = AllLettersIsolated;
},
{
code = "four-chor one-chor one_hundred-chor ten-chor three-chor twenty-chor two-chor one_hundred-chor.left twenty-chor.left twenty-chor.middle ten-chor.right twenty-chor.right ";
name = AllNumbers;
},
{

glyphs = (
{
glyphname = "aleph-chor";
lastChange = "2021-12-23 05:36:56 +0000";
layers = (
{
layerId = "345C3B08-035B-47C3-B4DB-D514201E7D1B";
shapes = (
{
closed = 1;
nodes = (
(840,189,l),
(840,447,l),
(750,447,l),
(750,269,l),
(50,269,l),
(50,189,l)
);
}
);
width = 890;
}
);
unicode = 69552;
},
{
glyphname = "ayin-chor";
lastChange = "2021-12-23 05:36:56 +0000";
layers = (
{
layerId = "345C3B08-035B-47C3-B4DB-D514201E7D1B";
shapes = (
{
closed = 1;
nodes = (
(390,150,o),
(450,360,o),
(458,556,c),
(368,560,l),
(360,372,o),
(304,173,o),
(226,-17,c),
(310,-47,l)
);
},
{
closed = 1;
nodes = (
(369,214,l),
(276,285,o),
(190,388,o),
(105,511,c),
(31,465,l),
(116,343,o),
(209,231,o),
(315,150,c)
);
}
);
width = 513;
}
);
unicode = 69568;
},
{
glyphname = "beth-chor";
lastChange = "2021-12-23 05:36:56 +0000";
layers = (
{
layerId = "345C3B08-035B-47C3-B4DB-D514201E7D1B";
shapes = (
{
closed = 1;
nodes = (
(490,-10,o),
(614,98,o),
(614,248,cs),
(614,347,o),
(547,458,o),
(414,560,c),
(362,496,l),
(474,407,o),
(524,322,o),
(524,248,cs),
(524,140,o),
(451,70,o),
(259,70,cs),
(202,70,o),
(129,77,o),
(54,91,c),
(37,13,l),
(114,-2,o),
(197,-10,o),
(259,-10,cs)
);
}
);
width = 668;
}
);
unicode = 69554;
},
{
glyphname = "curled_waw-chor";
lastChange = "2021-12-23 05:36:56 +0000";
layers = (
{
layerId = "345C3B08-035B-47C3-B4DB-D514201E7D1B";
shapes = (
{
closed = 1;
nodes = (
(244,217,o),
(339,282,o),
(339,396,cs),
(339,484,o),
(282,560,o),
(173,560,cs),
(135,560,o),
(104,551,o),
(65,533,c),
(96,459,l),
(114,468,o),
(135,474,o),
(157,474,cs),
(208,474,o),
(249,442,o),
(249,393,cs),
(249,339,o),
(198,300,o),
(125,300,c),
(125,220,l)
);
}
);
width = 403;
}
);
unicode = 69559;
},
{
glyphname = "daleth-chor";
kernRight = "daleth-chor";
lastChange = "2021-12-23 05:36:56 +0000";
layers = (
{
layerId = "345C3B08-035B-47C3-B4DB-D514201E7D1B";
shapes = (
{
closed = 1;
nodes = (
(446,161,o),
(510,363,o),
(528,552,c),
(438,560,l),
(422,379,o),
(361,190,o),
(264,32,c),
(340,-10,l)
);
},
{
closed = 1;
nodes = (
(448,443,l),
(304,413,o),
(167,433,o),
(66,481,c),
(34,406,l),
(139,356,o),
(306,331,o),
(466,365,c)
);
}
);
width = 578;
}
);
unicode = 69556;
},
{
glyphname = "gimel-chor";
kernRight = "gimel-chor";
lastChange = "2021-12-23 05:36:56 +0000";
layers = (
{
layerId = "345C3B08-035B-47C3-B4DB-D514201E7D1B";
shapes = (
{
closed = 1;
nodes = (
(592,550,l),
(50,550,l),
(50,470,l),
(484,470,l),
(387,6,l),
(475,-10,l)
);
}
);
width = 642;
}
);
unicode = 69555;
},
{
glyphname = "he-chor";
kernLeft = "he-chor";
kernRight = "he-chor";
lastChange = "2021-12-23 04:54:44 +0000";
layers = (
{
layerId = "345C3B08-035B-47C3-B4DB-D514201E7D1B";
shapes = (
{
closed = 1;
nodes = (
(335,-36,o),
(481,198,o),
(538,364,c),
(64,560,l),
(30,486,l),
(426,322,l),
(360,170,o),
(241,-12,o),
(128,-134,c),
(194,-188,l)
);
}
);
width = 571;
}
);
unicode = 69557;
},
{
glyphname = "heth-chor";
lastChange = "2021-12-23 04:54:44 +0000";
layers = (
{
layerId = "345C3B08-035B-47C3-B4DB-D514201E7D1B";
shapes = (
{
closed = 1;
nodes = (
(655,0,l),
(655,324,ls),
(655,476,o),
(583,550,o),
(430,550,cs),
(58,550,l),
(58,470,l),
(418,470,ls),
(518,470,o),
(565,421,o),
(565,321,cs),
(565,0,l)
);
},
{
closed = 1;
nodes = (
(237,0,l),
(237,508,l),
(147,508,l),
(147,0,l)
);
}
);
width = 734;
}
);
unicode = 69561;
},
{
glyphname = "kaph-chor";
lastChange = "2021-12-23 04:54:42 +0000";
layers = (
{
layerId = "345C3B08-035B-47C3-B4DB-D514201E7D1B";
shapes = (
{
closed = 1;
nodes = (
(437,-85,o),
(622,208,o),
(726,560,c),
(521,496,o),
(303,488,o),
(51,550,c),
(37,472,l),
(235,420,o),
(422,417,o),
(593,445,c),
(489,175,o),
(332,-33,o),
(77,-112,c),
(103,-188,l)
);
}
);
width = 759;
}
);
unicode = 69563;
},
{
glyphname = "lamedh-chor";
lastChange = "2021-12-23 04:54:42 +0000";
layers = (
{
layerId = "345C3B08-035B-47C3-B4DB-D514201E7D1B";
shapes = (
{
closed = 1;
nodes = (
(409,0,o),
(521,125,o),
(542,176,cs),
(603,324,o),
(377,544,o),
(100,835,c),
(34,779,l),
(308,493,o),
(498,301,o),
(458,206,cs),
(443,170,o),
(362,80,o),
(61,80,c),
(61,0,l)
);
}
);
width = 591;
}
);
unicode = 69564;
},
{
glyphname = "mem-chor";
lastChange = "2021-12-23 04:54:44 +0000";
layers = (
{
layerId = "345C3B08-035B-47C3-B4DB-D514201E7D1B";
shapes = (
{
closed = 1;
nodes = (
(803,-74,o),
(809,327,o),
(730,550,c),
(40,550,l),
(40,470,l),
(662,470,l),
(714,266,o),
(687,32,o),
(436,88,c),
(418,10,l)
);
},
{
closed = 1;
nodes = (
(313,-233,l),
(313,714,l),
(223,714,l),
(223,-233,l)
);
}
);
width = 820;
}
);
unicode = 69565;
},
{
glyphname = "nun-chor";
kernLeft = "nun-chor";
kernRight = "nun-chor";
lastChange = "2021-12-23 04:54:44 +0000";
layers = (
{
layerId = "345C3B08-035B-47C3-B4DB-D514201E7D1B";
shapes = (
{
closed = 1;
nodes = (
(190,-293,l),
(190,550,l),
(100,550,l),
(100,-293,l)
);
},
{
closed = 0;
nodes = (
(257,-293,l)
);
}
);
width = 290;
}
);
unicode = 69566;
},
{
glyphname = "pe-chor";
lastChange = "2021-12-23 05:36:56 +0000";
layers = (
{
layerId = "345C3B08-035B-47C3-B4DB-D514201E7D1B";
shapes = (
{
closed = 1;
nodes = (
(666,169,o),
(583,657,o),
(51,543,c),
(69,465,l),
(511,559,o),
(536,195,o),
(41,-58,c),
(81,-130,l)
);
}
);
width = 534;
}
);
unicode = 69569;
},
{
glyphname = "resh-chor";
kernRight = "resh-chor";
lastChange = "2021-12-23 05:36:56 +0000";
layers = (
{
layerId = "345C3B08-035B-47C3-B4DB-D514201E7D1B";
shapes = (
{
closed = 1;
nodes = (
(381,93,o),
(443,315,o),
(485,546,c),
(397,560,l),
(355,331,o),
(295,115,o),
(241,-17,c),
(325,-47,l)
);
},
{
closed = 1;
nodes = (
(429,336,l),
(301,362,o),
(186,414,o),
(74,497,c),
(20,433,l),
(137,346,o),
(270,286,o),
(411,258,c)
);
}
);
width = 498;
}
);
unicode = 69570;
},
{
glyphname = "samekh-chor";
lastChange = "2021-12-23 05:36:56 +0000";
layers = (
{
layerId = "345C3B08-035B-47C3-B4DB-D514201E7D1B";
shapes = (
{
closed = 1;
nodes = (
(380,0,ls),
(540,0,o),
(653,103,o),
(653,249,cs),
(653,390,o),
(550,489,o),
(412,489,cs),
(266,489,o),
(169,377,o),
(169,218,c),
(229,218,l),
(229,330,o),
(301,409,o),
(404,409,cs),
(497,409,o),
(563,343,o),
(563,249,cs),
(563,150,o),
(487,80,o),
(380,80,cs),
(20,80,l),
(20,0,l)
);
},
{
closed = 1;
nodes = (
(229,218,l),
(229,640,l),
(139,640,l),
(139,218,l)
);
}
);
width = 704;
}
);
unicode = 69567;
},
{
glyphname = "shin-chor";
lastChange = "2021-12-23 04:54:44 +0000";
layers = (
{
layerId = "345C3B08-035B-47C3-B4DB-D514201E7D1B";
shapes = (
{
closed = 1;
nodes = (
(626,-10,o),
(757,297,o),
(859,528,c),
(777,560,l),
(672,325,o),
(556,70,o),
(488,70,cs),
(415,70,o),
(235,154,o),
(154,225,c),
(94,165,l),
(180,89,o),
(387,-10,o),
(488,-10,cs)
);
},
{
closed = 1;
nodes = (
(160,-188,l),
(160,550,l),
(70,550,l),
(70,-188,l)
);
},
{
closed = 1;
nodes = (
(409,240,o),
(493,395,o),
(549,530,c),
(467,560,l),
(411,427,o),
(330,278,o),
(245,148,c),
(319,102,l)
);
}
);
width = 875;
}
);
unicode = 69571;
},
{
glyphname = "small_aleph-chor";
lastChange = "2021-12-23 04:54:44 +0000";
layers = (
{
layerId = "345C3B08-035B-47C3-B4DB-D514201E7D1B";
shapes = (
{
closed = 1;
nodes = (
(165,275,o),
(238,275,o),
(312,242,c),
(349,317,l),
(258,357,o),
(146,356,o),
(54,316,c),
(99,247,l),
(199,322,o),
(247,410,o),
(272,493,c),
(186,516,l),
(162,436,o),
(123,369,o),
(45,311,c),
(90,242,l)
);
}
);
width = 395;
}
);
unicode = 69553;
},
{
glyphname = "taw-chor";
lastChange = "2021-12-23 04:54:44 +0000";
layers = (
{
layerId = "345C3B08-035B-47C3-B4DB-D514201E7D1B";
shapes = (
{
closed = 1;
nodes = (
(499,-10,o),
(582,102,o),
(582,258,cs),
(582,487,l),
(492,487,l),
(492,270,ls),
(492,128,o),
(440,70,o),
(336,70,cs),
(211,70,o),
(150,153,o),
(150,278,cs),
(150,409,o),
(216,469,o),
(315,470,cs),
(864,470,l),
(885,417,o),
(898,346,o),
(898,269,cs),
(898,135,o),
(852,80,o),
(735,80,cs),
(652,80,o),
(575,108,o),
(540,173,c),
(489,96,l),
(547,36,o),
(627,0,o),
(734,0,cs),
(848,0,o),
(988,41,o),
(988,266,cs),
(988,354,o),
(968,465,o),
(937,550,c),
(336,550,ls),
(164,550,o),
(60,450,o),
(60,269,cs),
(60,99,o),
(152,-10,o),
(325,-10,cs)
);
}
);
width = 1048;
}
);
unicode = 69572;
},
{
glyphname = "waw-chor";
kernLeft = "waw-chor";
kernRight = "waw-chor";
lastChange = "2021-12-23 05:36:56 +0000";
layers = (
{
layerId = "345C3B08-035B-47C3-B4DB-D514201E7D1B";
shapes = (
{
closed = 1;
nodes = (
(204,159,o),
(198,410,o),
(171,560,c),
(83,546,l),
(108,402,o),
(114,161,o),
(96,-39,c),
(186,-47,l)
);
}
);
width = 290;
}
);
unicode = 69558;
},
{
glyphname = "yodh-chor";
kernLeft = "yodh-chor";
kernRight = "yodh-chor";
lastChange = "2021-12-23 05:36:57 +0000";
layers = (
{
layerId = "345C3B08-035B-47C3-B4DB-D514201E7D1B";
shapes = (
{
closed = 1;
nodes = (
(237,183,o),
(236,372,o),
(158,560,c),
(74,530,l),
(145,361,o),
(146,196,o),
(50,-13,c),
(132,-47,l)
);
}
);
width = 289;
}
);
unicode = 69562;
},
{
glyphname = "zayin-chor";
kernRight = "zayin-chor";
lastChange = "2021-12-23 05:36:57 +0000";
layers = (
{
layerId = "345C3B08-035B-47C3-B4DB-D514201E7D1B";
shapes = (
{
closed = 1;
nodes = (
(196,0,l),
(196,88,o),
(197,163,o),
(198,221,cs),
(198,268,o),
(199,310,o),
(199,355,cs),
(199,438,o),
(178,489,o),
(131,550,c),
(59,502,l),
(96,454,o),
(109,422,o),
(109,355,cs),
(109,311,o),
(108,269,o),
(108,223,cs),
(107,164,o),
(106,88,o),
(106,0,c)
);
}
);
width = 289;
}
);
unicode = 69560;
},
{
glyphname = "gimel-chor.cv01";
kernRight = "gimel-chor";
lastChange = "2021-12-23 05:36:57 +0000";
layers = (
{
layerId = "345C3B08-035B-47C3-B4DB-D514201E7D1B";
shapes = (
{
closed = 1;
nodes = (
(575,470,l),
(924,470,l),
(924,550,l),
(50,550,l),
(50,470,l),
(484,470,l),
(387,6,l),
(475,-10,l)
);
}
);
width = 974;
}
);
},
{
glyphname = "he-chor.cv01";
lastChange = "2021-12-23 04:54:42 +0000";
layers = (
{
layerId = "345C3B08-035B-47C3-B4DB-D514201E7D1B";
shapes = (
{
closed = 1;
nodes = (
(346,-45,o),
(487,179,o),
(513,281,c),
(59,367,l),
(43,289,l),
(394,222,l),
(340,113,o),
(240,-34,o),
(145,-137,c),
(211,-191,l)
);
}
);
width = 571;
}
);
},
{
glyphname = "mem-chor.cv01";
lastChange = "2021-12-23 04:54:44 +0000";
layers = (
{
layerId = "345C3B08-035B-47C3-B4DB-D514201E7D1B";
shapes = (
{
closed = 1;
nodes = (
(803,-74,o),
(809,327,o),
(730,550,c),
(40,550,l),
(40,470,l),
(662,470,l),
(714,266,o),
(687,32,o),
(436,88,c),
(418,10,l)
);
},
{
closed = 1;
nodes = (
(313,0,l),
(313,714,l),
(223,714,l),
(223,0,l)
);
}
);
width = 820;
}
);
},
{
glyphname = "nun-chor.cv01";
kernLeft = "nun-chor";
kernRight = "nun-chor";
lastChange = "2021-12-23 05:36:57 +0000";
layers = (
{
layerId = "345C3B08-035B-47C3-B4DB-D514201E7D1B";
shapes = (
{
closed = 1;
nodes = (
(534,2,ls),
(677,2,o),
(721,42,o),
(721,179,cs),
(721,343,o),
(707,466,o),
(699,554,c),
(609,546,l),
(617,458,o),
(631,339,o),
(631,179,cs),
(631,100,o),
(613,82,o),
(537,82,cs),
(20,82,l),
(20,2,l)
);
}
);
width = 771;
}
);
},
{
glyphname = "shin-chor.cv01";
lastChange = "2021-12-23 05:36:57 +0000";
layers = (
{
layerId = "345C3B08-035B-47C3-B4DB-D514201E7D1B";
shapes = (
{
closed = 1;
nodes = (
(270,308,o),
(409,380,o),
(533,504,c),
(469,560,l),
(353,444,o),
(238,385,o),
(106,370,c),
(116,290,l)
);
},
{
closed = 1;
nodes = (
(160,-188,l),
(160,550,l),
(70,550,l),
(70,-188,l)
);
},
{
closed = 1;
nodes = (
(270,-23,o),
(409,49,o),
(533,173,c),
(469,229,l),
(353,113,o),
(238,54,o),
(106,39,c),
(116,-41,l)
);
}
);
width = 573;
}
);
},
{
glyphname = "taw-chor.cv01";
lastChange = "2021-12-23 04:54:44 +0000";
layers = (
{
layerId = "345C3B08-035B-47C3-B4DB-D514201E7D1B";
shapes = (
{
closed = 1;
nodes = (
(499,-10,o),
(582,102,o),
(582,258,cs),
(582,487,l),
(492,487,l),
(492,270,ls),
(492,128,o),
(440,70,o),
(336,70,cs),
(211,70,o),
(150,153,o),
(150,278,cs),
(150,409,o),
(216,469,o),
(315,470,cs),
(864,470,l),
(885,417,o),
(898,346,o),
(898,269,cs),
(898,135,o),
(852,80,o),
(735,80,c),
(734,0,l),
(848,0,o),
(988,41,o),
(988,266,cs),
(988,354,o),
(968,465,o),
(937,550,c),
(336,550,ls),
(164,550,o),
(60,450,o),
(60,269,cs),
(60,99,o),
(152,-10,o),
(325,-10,cs)
);
}
);
width = 1048;
}
);
},
{
glyphname = "aleph-chor.isol";
lastChange = "2021-12-23 05:36:57 +0000";
layers = (
{
layerId = "345C3B08-035B-47C3-B4DB-D514201E7D1B";
shapes = (
{
closed = 1;
nodes = (
(840,189,l),
(840,447,l),
(750,447,l),
(750,269,l),
(50,269,l),
(50,189,l)
);
}
);
width = 890;
}
);
},
{
glyphname = "ayin-chor.isol";
lastChange = "2021-12-23 05:36:57 +0000";
layers = (
{
layerId = "345C3B08-035B-47C3-B4DB-D514201E7D1B";
shapes = (
{
closed = 1;
nodes = (
(390,150,o),
(450,360,o),
(458,556,c),
(368,560,l),
(360,372,o),
(304,173,o),
(226,-17,c),
(310,-47,l)
);
},
{
closed = 1;
nodes = (
(369,214,l),
(276,285,o),
(190,388,o),
(105,511,c),
(31,465,l),
(116,343,o),
(209,231,o),
(315,150,c)
);
}
);
width = 513;
}
);
},
{
glyphname = "beth-chor.isol";
lastChange = "2021-12-23 05:36:57 +0000";
layers = (
{
layerId = "345C3B08-035B-47C3-B4DB-D514201E7D1B";
shapes = (
{
closed = 1;
nodes = (
(490,-10,o),
(614,98,o),
(614,248,cs),
(614,347,o),
(547,458,o),
(414,560,c),
(362,496,l),
(474,407,o),
(524,322,o),
(524,248,cs),
(524,140,o),
(451,70,o),
(259,70,cs),
(202,70,o),
(129,77,o),
(54,91,c),
(37,13,l),
(114,-2,o),
(197,-10,o),
(259,-10,cs)
);
}
);
width = 668;
}
);
},
{
glyphname = "daleth-chor.isol";
kernRight = "daleth-chor";
lastChange = "2021-12-23 05:36:57 +0000";
layers = (
{
layerId = "345C3B08-035B-47C3-B4DB-D514201E7D1B";
shapes = (
{
closed = 1;
nodes = (
(446,161,o),
(510,363,o),
(528,552,c),
(438,560,l),
(422,379,o),
(361,190,o),
(264,32,c),
(340,-10,l)
);
},
{
closed = 1;
nodes = (
(448,443,l),
(304,413,o),
(167,433,o),
(66,481,c),
(34,406,l),
(139,356,o),
(306,331,o),
(466,365,c)
);
}
);
width = 578;
}
);
},
{
glyphname = "gimel-chor.isol";
kernRight = "gimel-chor";
lastChange = "2021-12-23 05:36:57 +0000";
layers = (
{
layerId = "345C3B08-035B-47C3-B4DB-D514201E7D1B";
shapes = (
{
closed = 1;
nodes = (
(592,550,l),
(50,550,l),
(50,470,l),
(484,470,l),
(387,6,l),
(475,-10,l)
);
}
);
width = 642;
}
);
},
{
glyphname = "he-chor.isol";
lastChange = "2021-12-23 04:54:44 +0000";
layers = (
{
layerId = "345C3B08-035B-47C3-B4DB-D514201E7D1B";
shapes = (
{
closed = 1;
nodes = (
(335,-36,o),
(481,198,o),
(538,364,c),
(64,560,l),
(30,486,l),
(426,322,l),
(360,170,o),
(241,-12,o),
(128,-134,c),
(194,-188,l)
);
}
);
width = 571;
}
);
},
{
glyphname = "heth-chor.isol";
lastChange = "2021-12-23 05:36:57 +0000";
layers = (
{
layerId = "345C3B08-035B-47C3-B4DB-D514201E7D1B";
shapes = (
{
closed = 1;
nodes = (
(655,0,l),
(655,324,ls),
(655,476,o),
(583,550,o),
(430,550,cs),
(58,550,l),
(58,470,l),
(418,470,ls),
(518,470,o),
(565,421,o),
(565,321,cs),
(565,0,l)
);
},
{
closed = 1;
nodes = (
(237,0,l),
(237,508,l),
(147,508,l),
(147,0,l)
);
}
);
width = 695;
}
);
},
{
glyphname = "kaph-chor.isol";
lastChange = "2021-12-23 04:54:42 +0000";
layers = (
{
layerId = "345C3B08-035B-47C3-B4DB-D514201E7D1B";
shapes = (
{
closed = 1;
nodes = (
(437,-85,o),
(622,208,o),
(726,560,c),
(521,496,o),
(303,488,o),
(51,550,c),
(37,472,l),
(235,420,o),
(422,417,o),
(593,445,c),
(489,175,o),
(332,-33,o),
(77,-112,c),
(103,-188,l)
);
}
);
width = 759;
}
);
},
{
glyphname = "lamedh-chor.isol";
lastChange = "2021-12-23 04:54:42 +0000";
layers = (
{
layerId = "345C3B08-035B-47C3-B4DB-D514201E7D1B";
shapes = (
{
closed = 1;
nodes = (
(409,0,o),
(521,125,o),
(542,176,cs),
(603,324,o),
(377,544,o),
(100,835,c),
(34,779,l),
(308,493,o),
(498,301,o),
(458,206,cs),
(443,170,o),
(362,80,o),
(61,80,c),
(61,0,l)
);
}
);
width = 591;
}
);
},
{
glyphname = "mem-chor.isol";
lastChange = "2021-12-23 04:54:44 +0000";
layers = (
{
layerId = "345C3B08-035B-47C3-B4DB-D514201E7D1B";
shapes = (
{
closed = 1;
nodes = (
(803,-74,o),
(809,327,o),
(730,550,c),
(40,550,l),
(40,470,l),
(662,470,l),
(714,266,o),
(687,32,o),
(436,88,c),
(418,10,l)
);
},
{
closed = 1;
nodes = (
(313,-233,l),
(313,714,l),
(223,714,l),
(223,-233,l)
);
}
);
width = 820;
}
);
},
{
glyphname = "nun-chor.isol";
lastChange = "2021-12-23 05:36:57 +0000";
layers = (
{
layerId = "345C3B08-035B-47C3-B4DB-D514201E7D1B";
shapes = (
{
closed = 1;
nodes = (
(190,-293,l),
(190,550,l),
(100,550,l),
(100,-293,l)
);
}
);
width = 290;
}
);
},
{
glyphname = "pe-chor.isol";
lastChange = "2021-12-23 05:36:57 +0000";
layers = (
{
layerId = "345C3B08-035B-47C3-B4DB-D514201E7D1B";
shapes = (
{
closed = 1;
nodes = (
(666,169,o),
(583,657,o),
(51,543,c),
(69,465,l),
(511,559,o),
(536,195,o),
(41,-58,c),
(81,-130,l)
);
}
);
width = 534;
}
);
},
{
glyphname = "resh-chor.isol";
kernRight = "resh-chor";
lastChange = "2021-12-23 05:36:57 +0000";
layers = (
{
layerId = "345C3B08-035B-47C3-B4DB-D514201E7D1B";
shapes = (
{
closed = 1;
nodes = (
(401,93,o),
(463,315,o),
(505,546,c),
(417,560,l),
(375,331,o),
(315,115,o),
(261,-17,c),
(345,-47,l)
);
},
{
closed = 1;
nodes = (
(449,336,l),
(321,362,o),
(206,414,o),
(94,497,c),
(40,433,l),
(157,346,o),
(290,286,o),
(431,258,c)
);
}
);
width = 548;
}
);
},
{
glyphname = "samekh-chor.isol";
lastChange = "2021-12-23 05:36:57 +0000";
layers = (
{
layerId = "345C3B08-035B-47C3-B4DB-D514201E7D1B";
shapes = (
{
closed = 1;
nodes = (
(380,0,ls),
(540,0,o),
(653,103,o),
(653,249,cs),
(653,390,o),
(550,489,o),
(412,489,cs),
(266,489,o),
(169,377,o),
(169,218,c),
(229,218,l),
(229,330,o),
(301,409,o),
(404,409,cs),
(497,409,o),
(563,343,o),
(563,249,cs),
(563,150,o),
(487,80,o),
(380,80,cs),
(20,80,l),
(20,0,l)
);
},
{
closed = 1;
nodes = (
(229,218,l),
(229,640,l),
(139,640,l),
(139,218,l)
);
}
);
width = 704;
}
);
},
{
glyphname = "shin-chor.isol";
lastChange = "2021-12-23 04:54:44 +0000";
layers = (
{
layerId = "345C3B08-035B-47C3-B4DB-D514201E7D1B";
shapes = (
{
closed = 1;
nodes = (
(626,-10,o),
(757,297,o),
(859,528,c),
(777,560,l),
(672,325,o),
(556,70,o),
(488,70,cs),
(415,70,o),
(235,154,o),
(154,225,c),
(94,165,l),
(180,89,o),
(387,-10,o),
(488,-10,cs)
);
},
{
closed = 1;
nodes = (
(160,-188,l),
(160,550,l),
(70,550,l),
(70,-188,l)
);
},
{
closed = 1;
nodes = (
(409,240,o),
(493,395,o),
(549,530,c),
(467,560,l),
(411,427,o),
(330,278,o),
(245,148,c),
(319,102,l)
);
}
);
width = 875;
}
);
},
{
glyphname = "taw-chor.isol";
lastChange = "2021-12-23 04:54:44 +0000";
layers = (
{
layerId = "345C3B08-035B-47C3-B4DB-D514201E7D1B";
shapes = (
{
closed = 1;
nodes = (
(499,-10,o),
(582,102,o),
(582,258,cs),
(582,487,l),
(492,487,l),
(492,270,ls),
(492,128,o),
(440,70,o),
(336,70,cs),
(211,70,o),
(150,153,o),
(150,278,cs),
(150,409,o),
(216,469,o),
(315,470,cs),
(864,470,l),
(885,417,o),
(898,346,o),
(898,269,cs),
(898,135,o),
(852,80,o),
(735,80,cs),
(652,80,o),
(575,108,o),
(540,173,c),
(489,96,l),
(547,36,o),
(627,0,o),
(734,0,cs),
(848,0,o),
(988,41,o),
(988,266,cs),
(988,354,o),
(968,465,o),
(937,550,c),
(336,550,ls),
(164,550,o),
(60,450,o),
(60,269,cs),
(60,99,o),
(152,-10,o),
(325,-10,cs)
);
}
);
width = 1048;
}
);
},
{
glyphname = "waw-chor.isol";
kernLeft = "waw-chor";
kernRight = "waw-chor";
lastChange = "2021-12-23 05:36:57 +0000";
layers = (
{
layerId = "345C3B08-035B-47C3-B4DB-D514201E7D1B";
shapes = (
{
closed = 1;
nodes = (
(204,159,o),
(198,410,o),
(171,560,c),
(83,546,l),
(108,402,o),
(114,161,o),
(96,-39,c),
(186,-47,l)
);
}
);
width = 290;
}
);
},
{
glyphname = "yodh-chor.isol";
kernLeft = "yodh-chor";
kernRight = "yodh-chor";
lastChange = "2021-12-23 05:36:57 +0000";
layers = (
{
layerId = "345C3B08-035B-47C3-B4DB-D514201E7D1B";
shapes = (
{
closed = 1;
nodes = (
(237,183,o),
(236,372,o),
(158,560,c),
(74,530,l),
(145,361,o),
(146,196,o),
(50,-13,c),
(132,-47,l)
);
}
);
width = 289;
}
);
},
{
glyphname = "zayin-chor.isol";
kernRight = "zayin-chor";
lastChange = "2021-12-23 05:36:57 +0000";
layers = (
{
layerId = "345C3B08-035B-47C3-B4DB-D514201E7D1B";
shapes = (
{
closed = 1;
nodes = (
(196,0,l),
(196,88,o),
(197,163,o),
(198,221,cs),
(198,268,o),
(199,310,o),
(199,355,cs),
(199,438,o),
(178,489,o),
(131,550,c),
(59,502,l),
(96,454,o),
(109,422,o),
(109,355,cs),
(109,311,o),
(108,269,o),
(108,223,cs),
(107,164,o),
(106,88,o),
(106,0,c)
);
}
);
width = 289;
}
);
},
{
glyphname = "aleph-chor.left";
lastChange = "2021-12-23 04:54:44 +0000";
layers = (
{
layerId = "345C3B08-035B-47C3-B4DB-D514201E7D1B";
shapes = (
{
closed = 1;
nodes = (
(129,0,o),
(219,49,o),
(265,170,c),
(237,176,l),
(263,51,o),
(345,0,o),
(432,0,c),
(432,80,l),
(353,80,o),
(277,176,o),
(312,298,cs),
(380,538,l),
(294,560,l),
(202,231,ls),
(171,121,o),
(119,80,o),
(0,80,c),
(-10,53,o),
(-10,27,o),
(0,0,c)
);
}
);
width = 482;
}
);
},
{
glyphname = "beth-chor.left";
lastChange = "2021-12-23 05:36:57 +0000";
layers = (
{
layerId = "345C3B08-035B-47C3-B4DB-D514201E7D1B";
shapes = (
{
closed = 1;
nodes = (
(79,0,ls),
(310,0,o),
(434,104,o),
(434,248,cs),
(434,347,o),
(367,458,o),
(234,560,c),
(182,496,l),
(294,407,o),
(344,322,o),
(344,248,cs),
(344,146,o),
(271,80,o),
(79,80,cs),
(0,80,l),
(-10,53,o),
(-10,27,o),
(0,0,c)
);
}
);
width = 488;
}
);
},
{
glyphname = "gimel-chor.left";
kernLeft = "gimel-chor";
kernRight = "gimel-chor";
lastChange = "2021-12-23 05:36:57 +0000";
layers = (
{
layerId = "345C3B08-035B-47C3-B4DB-D514201E7D1B";
shapes = (
{
closed = 1;
nodes = (
(592,550,l),
(0,550,l),
(0,470,l),
(484,470,l),
(387,6,l),
(475,-10,l)
);
}
);
width = 642;
}
);
},
{
glyphname = "kaph-chor.left";
lastChange = "2021-12-23 05:36:57 +0000";
layers = (
{
layerId = "345C3B08-035B-47C3-B4DB-D514201E7D1B";
shapes = (
{
closed = 1;
nodes = (
(88,0,ls),
(417,0,o),
(529,228,o),
(546,556,c),
(456,560,l),
(440,250,o),
(355,80,o),
(88,80,cs),
(0,80,l),
(-10,53,o),
(-10,27,o),
(0,0,c)
);
},
{
closed = 1;
nodes = (
(469,349,l),
(321,375,o),
(213,447,o),
(135,560,c),
(61,514,l),
(142,397,o),
(273,302,o),
(453,271,c)
);
}
);
width = 579;
}
);
},
{
glyphname = "lamedh-chor.left";
lastChange = "2021-12-23 04:54:44 +0000";
layers = (
{
layerId = "345C3B08-035B-47C3-B4DB-D514201E7D1B";
shapes = (
{
closed = 1;
nodes = (
(61,0,ls),
(409,0,o),
(521,125,o),
(542,176,cs),
(603,324,o),
(377,544,o),
(100,835,c),
(34,779,l),
(308,493,o),
(498,301,o),
(458,206,cs),
(443,170,o),
(362,80,o),
(61,80,cs),
(0,80,l),
(-10,53,o),
(-10,27,o),
(0,0,c)
);
}
);
width = 591;
}
);
},
{
glyphname = "nun-chor.left";
lastChange = "2021-12-23 04:54:44 +0000";
layers = (
{
layerId = "345C3B08-035B-47C3-B4DB-D514201E7D1B";
shapes = (
{
closed = 1;
nodes = (
(100,0,ls),
(202,0,o),
(250,46,o),
(250,143,cs),
(250,550,l),
(160,550,l),
(160,140,ls),
(160,99,o),
(141,80,o),
(100,80,cs),
(0,80,l),
(-10,53,o),
(-10,27,o),
(0,0,c)
);
}
);
width = 320;
}
);
},
{
glyphname = "samekh-chor.left";
lastChange = "2021-12-23 04:54:44 +0000";
layers = (
{
layerId = "345C3B08-035B-47C3-B4DB-D514201E7D1B";
shapes = (
{
closed = 1;
nodes = (
(378,0,ls),
(538,0,o),
(651,103,o),
(651,249,cs),
(651,390,o),
(548,489,o),
(410,489,cs),
(264,489,o),
(167,377,o),
(167,218,c),
(227,218,l),
(227,330,o),
(299,409,o),
(402,409,cs),
(495,409,o),
(561,343,o),
(561,249,cs),
(561,150,o),
(485,80,o),
(378,80,cs),
(0,80,l),
(-10,53,o),
(-10,27,o),
(0,0,c)
);
},
{
closed = 1;
nodes = (
(227,218,l),
(227,640,l),
(137,640,l),
(137,218,l)
);
}
);
width = 702;
}
);
},
{
glyphname = "taw-chor.left";
lastChange = "2021-12-23 04:54:44 +0000";
layers = (
{
layerId = "345C3B08-035B-47C3-B4DB-D514201E7D1B";
shapes = (
{
closed = 1;
nodes = (
(684,0,o),
(824,41,o),
(824,266,cs),
(824,354,o),
(804,465,o),
(773,550,c),
(192,550,ls),
(103,550,o),
(38,525,o),
(0,474,c),
(0,369,l),
(22,435,o),
(86,470,o),
(164,470,cs),
(700,470,l),
(721,417,o),
(734,346,o),
(734,269,cs),
(734,135,o),
(688,80,o),
(571,80,cs),
(488,80,o),
(411,108,o),
(376,173,c),
(325,96,l),
(383,36,o),
(463,0,o),
(570,0,cs)
);
},
{
closed = 1;
nodes = (
(335,-10,o),
(418,102,o),
(418,258,cs),
(418,487,l),
(328,487,l),
(328,270,ls),
(328,128,o),
(276,70,o),
(172,70,cs),
(78,70,o),
(25,114,o),
(0,159,c),
(0,59,l),
(33,16,o),
(96,-10,o),
(161,-10,cs)
);
}
);
width = 884;
}
);
},
{
glyphname = "zayin-chor.left";
kernRight = "zayin-chor";
lastChange = "2021-12-23 04:54:44 +0000";
layers = (
{
layerId = "345C3B08-035B-47C3-B4DB-D514201E7D1B";
shapes = (
{
closed = 1;
nodes = (
(309,0,l),
(309,88,o),
(310,163,o),
(311,221,cs),
(311,268,o),
(312,310,o),
(312,355,cs),
(312,438,o),
(291,489,o),
(244,550,c),
(172,502,l),
(209,454,o),
(222,422,o),
(222,355,cs),
(222,311,o),
(221,269,o),
(221,223,cs),
(219,80,l),
(0,80,l),
(-10,53,o),
(-10,27,o),
(0,0,c)
);
}
);
width = 402;
}
);
},
{
glyphname = "taw-chor.left_kaph-chor.liga";
lastChange = "2021-12-23 04:54:44 +0000";
layers = (
{
layerId = "345C3B08-035B-47C3-B4DB-D514201E7D1B";
shapes = (
{
closed = 1;
nodes = (
(1219,0,o),
(1359,41,o),
(1359,266,cs),
(1359,354,o),
(1339,465,o),
(1308,550,c),
(727,550,ls),
(638,550,o),
(573,525,o),
(535,474,c),
(535,369,l),
(557,435,o),
(621,470,o),
(699,470,cs),
(1235,470,l),
(1256,417,o),
(1269,346,o),
(1269,269,cs),
(1269,135,o),
(1223,80,o),
(1106,80,cs),
(1023,80,o),
(946,108,o),
(911,173,c),
(860,96,l),
(918,36,o),
(998,0,o),
(1105,0,cs)
);
},
{
closed = 1;
nodes = (
(418,-135,o),
(581,104,o),
(545,558,c),
(456,524,l),
(483,131,o),
(347,-64,o),
(39,-108,c),
(51,-188,l)
);
},
{
closed = 1;
nodes = (
(545,558,l),
(395,507,o),
(234,504,o),
(20,550,c),
(0,472,l),
(191,430,o),
(350,427,o),
(496,462,c)
);
},
{
closed = 1;
nodes = (
(870,-10,o),
(953,102,o),
(953,258,cs),
(953,507,l),
(863,507,l),
(863,270,ls),
(863,128,o),
(811,70,o),
(707,70,cs),
(636,70,o),
(571,95,o),
(505,179,c),
(478,107,l),
(533,24,o),
(621,-10,o),
(696,-10,cs)
);
}
);
width = 1419;
}
);
metricLeft = "taw-chor.middle";
metricRight = "taw-chor.left";
},
{
glyphname = "taw-chor.left_resh-chor.liga";
lastChange = "2021-12-23 04:54:44 +0000";
layers = (
{
layerId = "345C3B08-035B-47C3-B4DB-D514201E7D1B";
shapes = (
{
closed = 1;
nodes = (
(1107,0,o),
(1247,41,o),
(1247,266,cs),
(1247,354,o),
(1227,465,o),
(1196,550,c),
(615,550,ls),
(526,550,o),
(461,525,o),
(423,474,c),
(423,369,l),
(445,435,o),
(509,470,o),
(587,470,cs),
(1123,470,l),
(1144,417,o),
(1157,346,o),
(1157,269,cs),
(1157,135,o),
(1111,80,o),
(994,80,cs),
(911,80,o),
(834,108,o),
(799,173,c),
(748,96,l),
(806,36,o),
(886,0,o),
(993,0,cs)
);
},
{
closed = 1;
nodes = (
(449,336,l),
(321,362,o),
(206,414,o),
(94,497,c),
(40,433,l),
(157,346,o),
(290,286,o),
(431,258,c)
);
},
{
closed = 1;
nodes = (
(401,93,o),
(463,315,o),
(505,546,c),
(417,560,l),
(375,331,o),
(315,115,o),
(261,-17,c),
(345,-47,l)
);
},
{
closed = 1;
nodes = (
(751,-10,o),
(841,102,o),
(841,258,cs),
(841,487,l),
(751,487,l),
(751,270,ls),
(751,128,o),
(699,70,o),
(595,70,cs),
(486,70,o),
(431,129,o),
(408,190,c),
(378,108,l),
(408,33,o),
(488,-10,o),
(589,-10,cs)
);
}
);
width = 1307;
}
);
},
{
glyphname = "aleph-chor.middle";
lastChange = "2021-12-23 04:54:44 +0000";
layers = (
{
layerId = "345C3B08-035B-47C3-B4DB-D514201E7D1B";
shapes = (
{
closed = 1;
nodes = (
(129,0,o),
(219,49,o),
(265,170,c),
(237,176,l),
(267,51,o),
(362,0,o),
(462,0,c),
(472,27,o),
(472,53,o),
(462,80,c),
(368,80,o),
(277,176,o),
(312,298,cs),
(380,538,l),
(294,560,l),
(202,231,ls),
(171,121,o),
(119,80,o),
(0,80,c),
(-10,53,o),
(-10,27,o),
(0,0,c)
);
}
);
width = 462;
}
);
},
{
glyphname = "beth-chor.middle";
lastChange = "2021-12-23 05:36:57 +0000";
layers = (
{
layerId = "345C3B08-035B-47C3-B4DB-D514201E7D1B";
shapes = (
{
closed = 1;
nodes = (
(502,0,l),
(512,27,o),
(512,53,o),
(502,80,c),
(443,80,l),
(422,230,o),
(368,384,o),
(249,560,c),
(175,514,l),
(284,353,o),
(332,218,o),
(353,80,c),
(0,80,l),
(-10,53,o),
(-10,27,o),
(0,0,c)
);
}
);
width = 502;
}
);
},
{
glyphname = "gimel-chor.middle";
kernLeft = "gimel-chor";
lastChange = "2021-12-23 05:36:57 +0000";
layers = (
{
layerId = "345C3B08-035B-47C3-B4DB-D514201E7D1B";
shapes = (
{
closed = 1;
nodes = (
(592,550,l),
(0,550,l),
(0,470,l),
(484,470,l),
(389,16,l),
(477,0,l)
);
},
{
closed = 1;
nodes = (
(642,0,l),
(652,27,o),
(652,53,o),
(642,80,c),
(429,80,l),
(477,0,l)
);
}
);
width = 642;
}
);
},
{
glyphname = "kaph-chor.middle";
lastChange = "2021-12-23 05:36:57 +0000";
layers = (
{
layerId = "345C3B08-035B-47C3-B4DB-D514201E7D1B";
shapes = (
{
closed = 1;
nodes = (
(579,0,l),
(589,27,o),
(589,53,o),
(579,80,c),
(361,80,l),
(484,174,o),
(535,344,o),
(546,556,c),
(456,560,l),
(452,484,o),
(444,416,o),
(430,357,c),
(302,388,o),
(206,457,o),
(135,560,c),
(61,514,l),
(135,407,o),
(250,319,o),
(406,281,c),
(355,150,o),
(259,80,o),
(88,80,cs),
(0,80,l),
(-10,53,o),
(-10,27,o),
(0,0,c)
);
}
);
width = 579;
}
);
},
{
glyphname = "lamedh-chor.middle";
lastChange = "2021-12-23 04:54:44 +0000";
layers = (
{
layerId = "345C3B08-035B-47C3-B4DB-D514201E7D1B";
shapes = (
{
closed = 1;
nodes = (
(591,0,l),
(601,27,o),
(601,53,o),
(591,80,c),
(429,80,l),
(500,113,o),
(532,151,o),
(542,176,cs),
(603,324,o),
(377,544,o),
(100,835,c),
(34,779,l),
(308,493,o),
(498,301,o),
(458,206,cs),
(443,170,o),
(362,80,o),
(61,80,cs),
(0,80,l),
(-10,53,o),
(-10,27,o),
(0,0,c)
);
}
);
width = 591;
}
);
},
{
glyphname = "nun-chor.middle";
lastChange = "2021-12-23 04:54:44 +0000";
layers = (
{
layerId = "345C3B08-035B-47C3-B4DB-D514201E7D1B";
shapes = (
{
closed = 1;
nodes = (
(375,0,l),
(385,27,o),
(385,53,o),
(375,80,c),
(280,80,l),
(280,550,l),
(190,550,l),
(190,80,l),
(0,80,l),
(-10,53,o),
(-10,27,o),
(0,0,c)
);
}
);
width = 375;
}
);
},
{
glyphname = "samekh-chor.middle";
lastChange = "2021-12-23 05:36:57 +0000";
layers = (
{
layerId = "345C3B08-035B-47C3-B4DB-D514201E7D1B";
shapes = (
{
closed = 1;
nodes = (
(701,0,l),
(711,27,o),
(711,53,o),
(701,80,c),
(585,80,l),
(627,123,o),
(651,181,o),
(651,249,cs),
(651,390,o),
(548,489,o),
(410,489,cs),
(333,489,o),
(270,458,o),
(227,405,c),
(227,640,l),
(137,640,l),
(137,218,l),
(227,218,l),
(227,330,o),
(299,409,o),
(402,409,cs),
(495,409,o),
(561,343,o),
(561,249,cs),
(561,150,o),
(485,80,o),
(378,80,cs),
(0,80,l),
(-10,53,o),
(-10,27,o),
(0,0,c)
);
}
);
width = 701;
}
);
},
{
glyphname = "taw-chor.middle";
lastChange = "2021-12-23 04:54:44 +0000";
layers = (
{
layerId = "345C3B08-035B-47C3-B4DB-D514201E7D1B";
shapes = (
{
closed = 1;
nodes = (
(245,-10,o),
(307,16,o),
(350,60,c),
(426,15,o),
(505,0,o),
(594,0,cs),
(884,0,l),
(894,27,o),
(894,53,o),
(884,80,c),
(778,80,l),
(802,114,o),
(816,166,o),
(816,243,cs),
(816,334,o),
(796,474,o),
(773,550,c),
(190,550,ls),
(98,550,o),
(34,521,o),
(0,474,c),
(0,369,l),
(22,435,o),
(87,470,o),
(164,470,cs),
(328,470,l),
(328,270,ls),
(328,128,o),
(276,70,o),
(172,70,cs),
(101,70,o),
(36,95,o),
(0,159,c),
(0,59,l),
(34,16,o),
(95,-10,o),
(161,-10,cs)
);
},
{
closed = 1;
nodes = (
(521,80,o),
(456,93,o),
(395,132,c),
(411,169,o),
(418,211,o),
(418,258,cs),
(418,470,l),
(700,470,l),
(720,368,o),
(726,306,o),
(726,252,cs),
(726,133,o),
(697,80,o),
(576,80,cs)
);
}
);
width = 884;
}
);
},
{
glyphname = "zayin-chor.middle";
lastChange = "2021-12-23 04:54:42 +0000";
layers = (
{
layerId = "345C3B08-035B-47C3-B4DB-D514201E7D1B";
shapes = (
{
closed = 1;
nodes = (
(402,0,l),
(412,27,o),
(412,53,o),
(402,80,c),
(309.272,80,l),
(311,221,ls),
(312,268,o),
(312,310,o),
(312,355,cs),
(312,438,o),
(291,489,o),
(244,550,c),
(172,502,l),
(209,454,o),
(222,422,o),
(222,355,cs),
(222,311,o),
(222,269,o),
(221,223,cs),
(219,80,l),
(0,80,l),
(-10,53,o),
(-10,27,o),
(0,0,c)
);
}
);
width = 402;
}
);
},
{
glyphname = "taw-chor.middle_kaph-chor.liga";
lastChange = "2021-12-23 04:54:44 +0000";
layers = (
{
layerId = "345C3B08-035B-47C3-B4DB-D514201E7D1B";
shapes = (
{
closed = 1;
nodes = (
(1195,0,l),
(1195,18,l),
(1283,28,o),
(1351,75,o),
(1351,243,cs),
(1351,334,o),
(1331,474,o),
(1308,550,c),
(725,550,ls),
(633,550,o),
(569,521,o),
(535,474,c),
(535,369,l),
(557,435,o),
(622,470,o),
(699,470,cs),
(1235,470,l),
(1255,368,o),
(1261,306,o),
(1261,252,cs),
(1261,133,o),
(1232,80,o),
(1111,80,cs),
(1050,80,o),
(977,96,o),
(911,145,c),
(872,68,l),
(952,17,o),
(1035,0,o),
(1129,0,c)
);
},
{
closed = 1;
nodes = (
(418,-135,o),
(581,104,o),
(545,558,c),
(456,524,l),
(483,131,o),
(347,-64,o),
(39,-108,c),
(51,-188,l)
);
},
{
closed = 1;
nodes = (
(545,558,l),
(395,507,o),
(234,504,o),
(20,550,c),
(0,472,l),
(191,430,o),
(350,427,o),
(496,462,c)
);
},
{
closed = 1;
nodes = (
(870,-10,o),
(953,102,o),
(953,258,cs),
(953,507,l),
(863,507,l),
(863,270,ls),
(863,128,o),
(811,70,o),
(707,70,cs),
(636,70,o),
(571,95,o),
(505,179,c),
(478,107,l),
(533,24,o),
(621,-10,o),
(696,-10,cs)
);
},
{
closed = 1;
nodes = (
(1419,0,l),
(1429,27,o),
(1429,53,o),
(1419,80,c),
(1168,80,l),
(1145,0,l)
);
}
);
width = 1419;
}
);
metricLeft = "taw-chor.middle";
},
{
glyphname = "taw-chor.middle_resh-chor.liga";
lastChange = "2021-12-23 04:54:44 +0000";
layers = (
{
layerId = "345C3B08-035B-47C3-B4DB-D514201E7D1B";
shapes = (
{
closed = 1;
nodes = (
(667,-10,o),
(729,16,o),
(772,60,c),
(848,15,o),
(927,0,o),
(1016,0,cs),
(1306,0,l),
(1316,27,o),
(1316,53,o),
(1306,80,c),
(1200,80,l),
(1224,114,o),
(1238,166,o),
(1238,243,cs),
(1238,334,o),
(1218,474,o),
(1195,550,c),
(612,550,ls),
(520,550,o),
(456,521,o),
(422,474,c),
(422,369,l),
(444,435,o),
(509,470,o),
(586,470,cs),
(750,470,l),
(750,270,ls),
(750,128,o),
(698,70,o),
(594,70,cs),
(513,70,o),
(439,103,o),
(408,190,c),
(378,108,l),
(406,36,o),
(495,-10,o),
(583,-10,cs)
);
},
{
closed = 1;
nodes = (
(449,336,l),
(321,362,o),
(206,414,o),
(94,497,c),
(40,433,l),
(157,346,o),
(290,286,o),
(431,258,c)
);
},
{
closed = 1;
nodes = (
(401,93,o),
(463,315,o),
(505,546,c),
(417,560,l),
(375,331,o),
(315,115,o),
(261,-17,c),
(345,-47,l)
);
},
{
closed = 1;
nodes = (
(943,80,o),
(878,93,o),
(817,132,c),
(833,169,o),
(840,211,o),
(840,258,cs),
(840,470,l),
(1122,470,l),
(1142,368,o),
(1148,306,o),
(1148,252,cs),
(1148,133,o),
(1119,80,o),
(998,80,cs)
);
}
);
width = 1306;
}
);
},
{
glyphname = "aleph-chor.right";
lastChange = "2021-12-23 04:54:44 +0000";
layers = (
{
layerId = "345C3B08-035B-47C3-B4DB-D514201E7D1B";
shapes = (
{
closed = 1;
nodes = (
(149,0,o),
(239,49,o),
(285,170,c),
(257,176,l),
(287,51,o),
(382,0,o),
(482,0,c),
(492,27,o),
(492,53,o),
(482,80,c),
(388,80,o),
(297,176,o),
(332,298,cs),
(400,538,l),
(314,560,l),
(222,231,ls),
(191,121,o),
(139,80,o),
(20,80,c),
(20,0,l)
);
}
);
width = 482;
}
);
},
{
glyphname = "beth-chor.right";
lastChange = "2021-12-23 05:36:57 +0000";
layers = (
{
layerId = "345C3B08-035B-47C3-B4DB-D514201E7D1B";
shapes = (
{
closed = 1;
nodes = (
(502,0,l),
(512,27,o),
(512,53,o),
(502,80,c),
(443,80,l),
(422,230,o),
(368,384,o),
(249,560,c),
(175,514,l),
(284,353,o),
(332,218,o),
(353,80,c),
(20,80,l),
(20,0,l)
);
}
);
width = 502;
}
);
},
{
glyphname = "daleth-chor.right";
lastChange = "2021-12-23 05:36:57 +0000";
layers = (
{
layerId = "345C3B08-035B-47C3-B4DB-D514201E7D1B";
shapes = (
{
closed = 1;
nodes = (
(578,0,l),
(588,27,o),
(588,53,o),
(578,80,c),
(391,80,l),
(465,225,o),
(513,393,o),
(528,552,c),
(438,560,l),
(434,520,o),
(429,479,o),
(421,438,c),
(287,416,o),
(161,436,o),
(66,481,c),
(34,406,l),
(125,363,o),
(262,338,o),
(402,354,c),
(372,242,o),
(327,134,o),
(270,42,c),
(346,0,l)
);
}
);
width = 578;
}
);
},
{
glyphname = "gimel-chor.right";
kernLeft = "gimel-chor";
lastChange = "2021-12-23 05:36:57 +0000";
layers = (
{
layerId = "345C3B08-035B-47C3-B4DB-D514201E7D1B";
shapes = (
{
closed = 1;
nodes = (
(642,0,l),
(652,27,o),
(652,53,o),
(642,80,c),
(494,80,l),
(592,550,l),
(50,550,l),
(50,470,l),
(484,470,l),
(389,16,l),
(477,0,l)
);
}
);
width = 642;
}
);
},
{
glyphname = "he-chor.right";
lastChange = "2021-12-23 05:36:57 +0000";
layers = (
{
layerId = "345C3B08-035B-47C3-B4DB-D514201E7D1B";
shapes = (
{
closed = 1;
nodes = (
(237,-154,o),
(386,-94,o),
(515,0,c),
(571,0,l),
(581,27,o),
(581,53,o),
(571,80,c),
(535,80,l),
(443,223,o),
(304,392,o),
(151,560,c),
(85,506,l),
(228,349,o),
(357,189,o),
(447,54,c),
(328,-29,o),
(201,-80,o),
(60,-110,c),
(78,-188,l)
);
}
);
width = 571;
}
);
},
{
glyphname = "heth-chor.right";
lastChange = "2021-12-23 04:54:44 +0000";
layers = (
{
layerId = "345C3B08-035B-47C3-B4DB-D514201E7D1B";
shapes = (
{
closed = 1;
nodes = (
(237,0,l),
(237,470,l),
(418,470,ls),
(518,470,o),
(565,421,o),
(565,321,cs),
(565,0,l),
(695,0,l),
(705,27,o),
(705,53,o),
(695,80,c),
(655,80,l),
(655,324,ls),
(655,476,o),
(583,550,o),
(430,550,cs),
(58,550,l),
(58,470,l),
(147,470,l),
(147,0,l)
);
}
);
width = 695;
}
);
},
{
glyphname = "kaph-chor.right";
lastChange = "2021-12-23 04:54:42 +0000";
layers = (
{
layerId = "345C3B08-035B-47C3-B4DB-D514201E7D1B";
shapes = (
{
closed = 1;
nodes = (
(281,-241,o),
(417,-137,o),
(521,0,c),
(759,0,l),
(769,27,o),
(769,53,o),
(759,80,c),
(576,80,l),
(639,182,o),
(688,297,o),
(726,420,c),
(521,356,o),
(303,348,o),
(51,410,c),
(37,332,l),
(235,280,o),
(422,277,o),
(593,305,c),
(489,52,o),
(332,-143,o),
(77,-217,c),
(103,-293,l)
);
}
);
width = 759;
}
);
},
{
glyphname = "lamedh-chor.right";
lastChange = "2021-12-23 04:54:44 +0000";
layers = (
{
layerId = "345C3B08-035B-47C3-B4DB-D514201E7D1B";
shapes = (
{
closed = 1;
nodes = (
(591,0,l),
(601,27,o),
(601,53,o),
(591,80,c),
(429,80,l),
(500,113,o),
(532,151,o),
(542,176,cs),
(603,324,o),
(377,544,o),
(100,835,c),
(34,779,l),
(308,493,o),
(498,301,o),
(458,206,cs),
(443,170,o),
(362,80,o),
(61,80,c),
(61,0,l)
);
}
);
width = 591;
}
);
},
{
glyphname = "mem-chor.right";
lastChange = "2021-12-23 04:54:44 +0000";
layers = (
{
layerId = "345C3B08-035B-47C3-B4DB-D514201E7D1B";
shapes = (
{
closed = 1;
nodes = (
(313,-233,l),
(313,470,l),
(662,470,l),
(725,219,o),
(659,80,o),
(436,80,c),
(436,0,l),
(821,0,l),
(831,27,o),
(831,53,o),
(821,80,c),
(677,80,l),
(798,161,o),
(778,359,o),
(730,550,c),
(313,550,l),
(313,714,l),
(223,714,l),
(223,550,l),
(40,550,l),
(40,470,l),
(223,470,l),
(223,-233,l)
);
}
);
width = 821;
}
);
},
{
glyphname = "nun-chor.right";
lastChange = "2021-12-23 04:54:44 +0000";
layers = (
{
layerId = "345C3B08-035B-47C3-B4DB-D514201E7D1B";
shapes = (
{
closed = 1;
nodes = (
(190,-293,l),
(190,0,l),
(255,0,l),
(265,27,o),
(265,53,o),
(255,80,c),
(190,80,l),
(190,550,l),
(100,550,l),
(100,-293,l)
);
}
);
width = 255;
}
);
},
{
glyphname = "pe-chor.right";
lastChange = "2021-12-23 05:36:57 +0000";
layers = (
{
layerId = "345C3B08-035B-47C3-B4DB-D514201E7D1B";
shapes = (
{
closed = 1;
nodes = (
(152,-93,o),
(202,-49,o),
(242,0,c),
(410,0,l),
(420,27,o),
(420,53,o),
(410,80,c),
(297,80,l),
(407,271,o),
(383,493,o),
(192,560,c),
(156,485,l),
(362,401,o),
(305,96,o),
(41,-64,c),
(93,-130,l)
);
}
);
width = 410;
}
);
},
{
glyphname = "resh-chor.right";
lastChange = "2021-12-23 05:36:57 +0000";
layers = (
{
layerId = "345C3B08-035B-47C3-B4DB-D514201E7D1B";
shapes = (
{
closed = 1;
nodes = (
(363,0,l),
(508,0,l),
(518,27,o),
(518,53,o),
(508,80,c),
(390,80,l),
(432,211,o),
(474,376,o),
(505,546,c),
(417,560,l),
(404,490,o),
(389,421,o),
(374,355,c),
(275,384,o),
(184,431,o),
(94,497,c),
(40,433,l),
(136,362,o),
(242,309,o),
(355,277,c),
(324,160,o),
(292,58,o),
(261,-17,c),
(345,-47,l)
);
}
);
width = 508;
}
);
},
{
glyphname = "samekh-chor.right";
lastChange = "2021-12-23 04:54:44 +0000";
layers = (
{
layerId = "345C3B08-035B-47C3-B4DB-D514201E7D1B";
shapes = (
{
closed = 1;
nodes = (
(703,0,l),
(713,27,o),
(713,53,o),
(703,80,c),
(587,80,l),
(629,123,o),
(653,181,o),
(653,249,cs),
(653,390,o),
(550,489,o),
(412,489,cs),
(335,489,o),
(272,458,o),
(229,405,c),
(229,640,l),
(139,640,l),
(139,218,l),
(229,218,l),
(229,330,o),
(301,409,o),
(404,409,cs),
(497,409,o),
(563,343,o),
(563,249,cs),
(563,150,o),
(487,80,o),
(380,80,cs),
(20,80,l),
(20,0,l)
);
}
);
width = 703;
}
);
},
{
glyphname = "shin-chor.right";
lastChange = "2021-12-23 04:54:44 +0000";
layers = (
{
layerId = "345C3B08-035B-47C3-B4DB-D514201E7D1B";
shapes = (
{
closed = 1;
nodes = (
(160,-188,l),
(160,119,l),
(260,59,o),
(408,0,o),
(488,0,cs),
(859,0,l),
(869,27,o),
(869,53,o),
(859,80,c),
(617,80,l),
(707,185,o),
(790,374,o),
(859,528,c),
(777,560,l),
(672,330,o),
(556,80,o),
(488,80,cs),
(453,80,o),
(394,98,o),
(333,124,c),
(418,256,o),
(496,402,o),
(549,530,c),
(467,560,l),
(413,432,o),
(336,288,o),
(254,162,c),
(218,180,o),
(185,201,o),
(160,220,c),
(160,550,l),
(70,550,l),
(70,-188,l)
);
}
);
width = 859;
}
);
},
{
glyphname = "taw-chor.right";
lastChange = "2021-12-23 04:54:44 +0000";
layers = (
{
layerId = "345C3B08-035B-47C3-B4DB-D514201E7D1B";
shapes = (
{
closed = 1;
nodes = (
(409,-10,o),
(471,16,o),
(514,60,c),
(590,15,o),
(669,0,o),
(758,0,cs),
(1048,0,l),
(1058,27,o),
(1058,53,o),
(1048,80,c),
(942,80,l),
(966,114,o),
(980,166,o),
(980,243,cs),
(980,334,o),
(960,474,o),
(937,550,c),
(582,550,l),
(582,640,l),
(492,640,l),
(492,550,l),
(336,550,ls),
(164,550,o),
(60,450,o),
(60,269,cs),
(60,99,o),
(152,-10,o),
(325,-10,cs)
);
},
{
closed = 1;
nodes = (
(211,70,o),
(150,153,o),
(150,278,cs),
(150,409,o),
(216,470,o),
(315,470,cs),
(492,470,l),
(492,270,ls),
(492,128,o),
(440,70,o),
(336,70,cs)
);
},
{
closed = 1;
nodes = (
(685,80,o),
(620,93,o),
(559,132,c),
(575,169,o),
(582,211,o),
(582,258,cs),
(582,470,l),
(864,470,l),
(884,368,o),
(890,306,o),
(890,252,cs),
(890,133,o),
(861,80,o),
(740,80,cs)
);
}
);
width = 1048;
}
);
},
{
glyphname = "waw-chor.right";
lastChange = "2021-12-23 05:36:57 +0000";
layers = (
{
layerId = "345C3B08-035B-47C3-B4DB-D514201E7D1B";
shapes = (
{
closed = 1;
nodes = (
(190,0,l),
(290,0,l),
(300,27,o),
(300,53,o),
(290,80,c),
(194,80,l),
(201,255,o),
(193,440,o),
(171,560,c),
(83,546,l),
(108,402,o),
(114,161,o),
(96,-39,c),
(186,-47,l)
);
}
);
width = 290;
}
);
},
{
glyphname = "yodh-chor.right";
lastChange = "2021-12-23 05:36:57 +0000";
layers = (
{
layerId = "345C3B08-035B-47C3-B4DB-D514201E7D1B";
shapes = (
{
closed = 1;
nodes = (
(139,-31,o),
(146,-15,o),
(152,0,c),
(250,0,l),
(260,27,o),
(260,53,o),
(250,80,c),
(181,80,l),
(234,255,o),
(221,408,o),
(158,560,c),
(74,530,l),
(145,361,o),
(146,196,o),
(50,-13,c),
(132,-47,l)
);
}
);
width = 250;
}
);
},
{
glyphname = "zayin-chor.right";
lastChange = "2021-12-23 04:54:42 +0000";
layers = (
{
layerId = "345C3B08-035B-47C3-B4DB-D514201E7D1B";
shapes = (
{
closed = 1;
nodes = (
(289,0,l),
(299,27,o),
(299,53,o),
(289,80,c),
(196.272,80,l),
(198,221,ls),
(199,268,o),
(199,310,o),
(199,355,cs),
(199,438,o),
(178,489,o),
(131,550,c),
(59,502,l),
(96,454,o),
(109,422,o),
(109,355,cs),
(109,311,o),
(108,269,o),
(108,223,cs),
(107,164,o),
(106,88,o),
(106,0,c)
);
}
);
width = 289;
}
);
},
{
glyphname = "aleph-chor.left.cv01";
lastChange = "2021-12-23 04:54:44 +0000";
layers = (
{
layerId = "345C3B08-035B-47C3-B4DB-D514201E7D1B";
shapes = (
{
closed = 1;
nodes = (
(139,222,o),
(270,246,o),
(319,418,cs),
(354,538,l),
(268,560,l),
(238,453,ls),
(206,341,o),
(145,302,o),
(0,302,c),
(0,222,l)
);
},
{
closed = 1;
nodes = (
(426,244,l),
(344,280,o),
(155,302,o),
(0,302,c),
(0,222,l),
(148,222,o),
(318,202,o),
(396,167,c)
);
}
);
width = 436;
}
);
},
{
glyphname = "aleph-chor.middle.cv01";
lastChange = "2021-12-23 04:54:44 +0000";
layers = (
{
layerId = "345C3B08-035B-47C3-B4DB-D514201E7D1B";
shapes = (
{
closed = 1;
nodes = (
(446,27,o),
(446,53,o),
(436,80,c),
(333,80,o),
(254,187,o),
(296,334,cs),
(354,538,l),
(268,560,l),
(238,453,ls),
(206,340,o),
(137,302,o),
(0,302,c),
(0,222,l),
(91,222,o),
(170,242,o),
(220,295,c),
(196,291,l),
(187,81,o),
(310,0,o),
(436,0,c)
);
}
);
width = 436;
}
);
},
{
glyphname = "he-chor.right.cv01";
lastChange = "2021-12-23 04:54:42 +0000";
layers = (
{
layerId = "345C3B08-035B-47C3-B4DB-D514201E7D1B";
shapes = (
{
closed = 1;
nodes = (
(252,-126,o),
(330,-67,o),
(400,0,c),
(571,0,l),
(581,27,o),
(581,53,o),
(571,80,c),
(475,80,l),
(506,116,o),
(533,154,o),
(558,194,c),
(424,307,o),
(249,439,o),
(58,560,c),
(13,487,l),
(170,386,o),
(315,279,o),
(444,173,c),
(358,56,o),
(245,-34,o),
(132,-108,c),
(174,-176,l)
);
}
);
width = 571;
}
);
},
{
glyphname = "aleph-chor.middle.cv02";
lastChange = "2021-12-23 04:54:44 +0000";
layers = (
{
layerId = "345C3B08-035B-47C3-B4DB-D514201E7D1B";
shapes = (
{
closed = 1;
nodes = (
(615,0,l),
(625,27,o),
(625,53,o),
(615,80,c),
(565,80,ls),
(428,80,o),
(264,211,o),
(78,560,c),
(0,520,l),
(194,158,o),
(389,0,o),
(565,0,cs)
);
},
{
closed = 1;
nodes = (
(64,0,ls),
(232,0,o),
(353,126,o),
(556,522,c),
(478,560,l),
(279,174,o),
(187,80,o),
(64,80,cs),
(0,80,l),
(-10,53,o),
(-10,27,o),
(0,0,c)
);
}
);
width = 615;
}
);
},
{
glyphname = "taw-chor.left_aleph-chor.left.cv01.liga";
lastChange = "2021-12-23 04:54:44 +0000";
layers = (
{
layerId = "345C3B08-035B-47C3-B4DB-D514201E7D1B";
shapes = (
{
closed = 1;
nodes = (
(985,0,o),
(1125,41,o),
(1125,266,cs),
(1125,354,o),
(1105,465,o),
(1074,550,c),
(493,550,ls),
(404,550,o),
(339,525,o),
(301,474,c),
(301,369,l),
(323,435,o),
(387,470,o),
(465,470,cs),
(1001,470,l),
(1022,417,o),
(1035,346,o),
(1035,269,cs),
(1035,135,o),
(989,80,o),
(872,80,cs),
(789,80,o),
(712,108,o),
(677,173,c),
(626,96,l),
(684,36,o),
(764,0,o),
(871,0,cs)
);
},
{
closed = 1;
nodes = (
(139,222,o),
(269,246,o),
(319,418,cs),
(354,516,l),
(268,538,l),
(238,453,ls),
(207,341,o),
(145,302,o),
(0,302,c),
(0,222,l)
);
},
{
closed = 1;
nodes = (
(636,-10,o),
(719,102,o),
(719,258,cs),
(719,507,l),
(629,507,l),
(629,270,ls),
(629,128,o),
(577,70,o),
(473,70,cs),
(382,70,o),
(293,126,o),
(252,308,c),
(175,259,l),
(208,100,o),
(307,-10,o),
(462,-10,cs)
);
}
);
width = 1185;
}
);
metricLeft = "aleph-chor.left.cv01";
metricRight = "taw-chor.left";
},
{
glyphname = "taw-chor.middle_aleph-chor.left.cv01.liga";
lastChange = "2021-12-23 04:54:44 +0000";
layers = (
{
layerId = "345C3B08-035B-47C3-B4DB-D514201E7D1B";
shapes = (
{
closed = 1;
nodes = (
(961,0,l),
(961,18,l),
(1049,28,o),
(1117,75,o),
(1117,243,cs),
(1117,334,o),
(1097,474,o),
(1074,550,c),
(491,550,ls),
(399,550,o),
(335,521,o),
(301,464,c),
(301,369,l),
(323,435,o),
(388,470,o),
(465,470,cs),
(1001,470,l),
(1021,368,o),
(1027,306,o),
(1027,252,cs),
(1027,133,o),
(998,80,o),
(877,80,cs),
(816,80,o),
(743,96,o),
(677,145,c),
(638,68,l),
(718,17,o),
(801,0,o),
(895,0,c)
);
},
{
closed = 1;
nodes = (
(139,222,o),
(259,249,o),
(319,418,cs),
(354,516,l),
(268,538,l),
(238,453,ls),
(199,343,o),
(145,302,o),
(0,302,c),
(0,222,l)
);
},
{
closed = 1;
nodes = (
(636,-10,o),
(719,102,o),
(719,258,cs),
(719,507,l),
(629,507,l),
(629,270,ls),
(629,128,o),
(577,70,o),
(473,70,cs),
(382,70,o),
(293,126,o),
(252,308,c),
(175,259,l),
(208,100,o),
(307,-10,o),
(462,-10,cs)
);
},
{
closed = 1;
nodes = (
(1185,0,l),
(1195,27,o),
(1195,53,o),
(1185,80,c),
(934,80,l),
(911,0,l)
);
}
);
width = 1185;
}
);
metricLeft = "aleph-chor.left.cv01";
},
{
glyphname = "one_hundred-chor.isol";
lastChange = "2021-12-23 05:36:57 +0000";
layers = (
{
layerId = "345C3B08-035B-47C3-B4DB-D514201E7D1B";
shapes = (
{
closed = 1;
nodes = (
(642,-293,o),
(809,-154,o),
(809,47,cs),
(809,285,o),
(576,412,o),
(270,361,c),
(243,308,l),
(535,335,o),
(719,237,o),
(719,42,cs),
(719,-116,o),
(598,-214,o),
(404,-214,cs),
(278,-214,o),
(147,-161,o),
(75,-82,c),
(25,-152,l),
(113,-236,o),
(267,-293,o),
(404,-293,cs)
);
},
{
closed = 1;
nodes = (
(448,-36,o),
(485,1,o),
(485,47,cs),
(485,93,o),
(448,129,o),
(402,129,cs),
(356,129,o),
(320,93,o),
(320,47,cs),
(320,1,o),
(356,-36,o),
(402,-36,cs)
);
},
{
closed = 1;
nodes = (
(298,348,l),
(492,387,o),
(583,464,o),
(587,568,cs),
(591,673,o),
(446,769,o),
(173,769,c),
(173,689,l),
(597,689,o),
(619,480,o),
(223,386,c),
(243,308,l)
);
}
);
width = 850;
}
);
},
{
glyphname = "one_hundred-chor.left";
lastChange = "2021-12-23 04:54:44 +0000";
layers = (
{
layerId = "345C3B08-035B-47C3-B4DB-D514201E7D1B";
shapes = (
{
closed = 1;
nodes = (
(642,-293,o),
(809,-146,o),
(809,49,cs),
(809,259,o),
(616,385,o),
(352,370,c),
(347,358,l),
(508,401,o),
(584,478,o),
(587,561,cs),
(591,678,o),
(446,769,o),
(173,769,c),
(173,689,l),
(405,689,o),
(506,627,o),
(506,563,cs),
(506,482,o),
(343,386,o),
(153,386,cs),
(0,386,l),
(-10,359,o),
(-10,333,o),
(0,306,c),
(372,306,ls),
(536,306,o),
(719,231,o),
(719,44,cs),
(719,-108,o),
(598,-213,o),
(411,-213,cs),
(279,-213,o),
(147,-161,o),
(75,-82,c),
(25,-152,l),
(113,-236,o),
(267,-293,o),
(411,-293,cs)
);
},
{
closed = 1;
nodes = (
(448,-36,o),
(485,1,o),
(485,47,cs),
(485,93,o),
(448,129,o),
(402,129,cs),
(356,129,o),
(320,93,o),
(320,47,cs),
(320,1,o),
(356,-36,o),
(402,-36,cs)
);
}
);
width = 850;
}
);
},
{
glyphname = "one-chor";
lastChange = "2021-12-23 05:36:57 +0000";
layers = (
{
layerId = "345C3B08-035B-47C3-B4DB-D514201E7D1B";
shapes = (
{
closed = 1;
nodes = (
(272,0,l),
(285,362,o),
(278,450,o),
(232,560,c),
(150,528,l),
(189,434,o),
(195,359,o),
(182,0,c)
);
}
);
width = 428;
}
);
unicode = 69573;
},
{
glyphname = "one_hundred-chor";
lastChange = "2021-12-23 05:36:57 +0000";
layers = (
{
layerId = "345C3B08-035B-47C3-B4DB-D514201E7D1B";
shapes = (
{
closed = 1;
nodes = (
(642,-293,o),
(809,-154,o),
(809,47,cs),
(809,285,o),
(576,412,o),
(270,361,c),
(243,308,l),
(535,335,o),
(719,237,o),
(719,42,cs),
(719,-116,o),
(598,-214,o),
(404,-214,cs),
(278,-214,o),
(147,-161,o),
(75,-82,c),
(25,-152,l),
(113,-236,o),
(267,-293,o),
(404,-293,cs)
);
},
{
closed = 1;
nodes = (
(448,-36,o),
(485,1,o),
(485,47,cs),
(485,93,o),
(448,129,o),
(402,129,cs),
(356,129,o),
(320,93,o),
(320,47,cs),
(320,1,o),
(356,-36,o),
(402,-36,cs)
);
},
{
closed = 1;
nodes = (
(298,348,l),
(492,387,o),
(583,464,o),
(587,568,cs),
(591,673,o),
(446,769,o),
(173,769,c),
(173,689,l),
(597,689,o),
(619,480,o),
(223,386,c),
(243,308,l)
);
}
);
width = 850;
}
);
unicode = 69579;
},
{
glyphname = "ten-chor";
lastChange = "2021-12-23 04:54:42 +0000";
layers = (
{
layerId = "345C3B08-035B-47C3-B4DB-D514201E7D1B";
shapes = (
{
closed = 1;
nodes = (
(389,-9,o),
(576,92,o),
(576,244,cs),
(576,384,o),
(409,549,o),
(79,687,c),
(45,613,l),
(350,485,o),
(486,349,o),
(486,244,cs),
(486,142,o),
(356,72,o),
(50,80,c),
(48,0,l)
);
}
);
width = 620;
}
);
unicode = 69577;
},
{
glyphname = "twenty-chor";
lastChange = "2021-12-23 04:54:44 +0000";
layers = (
{
layerId = "345C3B08-035B-47C3-B4DB-D514201E7D1B";
shapes = (
{
closed = 1;
nodes = (
(446,-59,o),
(554,69,o),
(554,170,cs),
(554,281,o),
(415,386,o),
(168,366,c),
(106,306,l),
(546,305,o),
(613,128,o),
(170,-118,c),
(214,-188,l)
);
},
{
closed = 1;
nodes = (
(161,348,l),
(355,387,o),
(446,464,o),
(450,568,cs),
(454,673,o),
(309,769,o),
(36,769,c),
(36,689,l),
(460,689,o),
(482,480,o),
(86,386,c),
(106,306,l)
);
}
);
width = 589;
}
);
unicode = 69578;
},
{
glyphname = "one-chor.isol";
lastChange = "2021-12-23 05:36:57 +0000";
layers = (
{
layerId = "345C3B08-035B-47C3-B4DB-D514201E7D1B";
shapes = (
{
closed = 1;
nodes = (
(222,0,l),
(235,362,o),
(228,450,o),
(182,560,c),
(100,528,l),
(139,434,o),
(145,359,o),
(132,0,c)
);
}
);
width = 328;
}
);
},
{
glyphname = "ten-chor.isol";
lastChange = "2021-12-23 04:54:42 +0000";
layers = (
{
layerId = "345C3B08-035B-47C3-B4DB-D514201E7D1B";
shapes = (
{
closed = 1;
nodes = (
(389,-9,o),
(576,92,o),
(576,244,cs),
(576,384,o),
(409,549,o),
(79,687,c),
(45,613,l),
(350,485,o),
(486,349,o),
(486,244,cs),
(486,142,o),
(356,72,o),
(50,80,c),
(48,0,l)
);
}
);
width = 620;
}
);
},
{
glyphname = "twenty-chor.isol";
lastChange = "2021-12-23 04:54:44 +0000";
layers = (
{
layerId = "345C3B08-035B-47C3-B4DB-D514201E7D1B";
shapes = (
{
closed = 1;
nodes = (
(446,-59,o),
(554,69,o),
(554,170,cs),
(554,281,o),
(415,386,o),
(168,366,c),
(106,306,l),
(546,305,o),
(613,128,o),
(170,-118,c),
(214,-188,l)
);
},
{
closed = 1;
nodes = (
(161,348,l),
(355,387,o),
(446,464,o),
(450,568,cs),
(454,673,o),
(309,769,o),
(36,769,c),
(36,689,l),
(460,689,o),
(482,480,o),
(86,386,c),
(106,306,l)
);
}
);
width = 589;
}
);
},
{
glyphname = "twenty-chor.left";
lastChange = "2021-12-23 05:36:57 +0000";
layers = (
{
layerId = "345C3B08-035B-47C3-B4DB-D514201E7D1B";
shapes = (
{
closed = 1;
nodes = (
(350,-84,o),
(489,15,o),
(489,141,cs),
(489,244,o),
(403,308,o),
(292,341,c),
(399,367,o),
(477,416,o),
(477,499,cs),
(477,616,o),
(332,715,o),
(174,761,c),
(144,685,l),
(282,647,o),
(387,574,o),
(387,499,cs),
(387,431,o),
(261,385,o),
(83,385,cs),
(0,385,l),
(-10,358,o),
(-10,332,o),
(0,305,c),
(83,305,ls),
(249,305,o),
(399,247,o),
(399,141,cs),
(399,56,o),
(297,-19,o),
(199,-66,c),
(239,-138,l)
);
}
);
width = 589;
}
);
},
{
glyphname = "twenty-chor.middle";
lastChange = "2021-12-23 05:36:57 +0000";
layers = (
{
layerId = "345C3B08-035B-47C3-B4DB-D514201E7D1B";
shapes = (
{
closed = 1;
nodes = (
(376,-84,o),
(515,15,o),
(515,141,cs),
(515,215,o),
(470,269,o),
(404,306,c),
(615,306,l),
(625,333,o),
(625,359,o),
(615,386,c),
(432,386,l),
(476,414,o),
(503,451,o),
(503,499,cs),
(503,616,o),
(358,715,o),
(200,761,c),
(170,685,l),
(308,647,o),
(413,574,o),
(413,499,cs),
(413,437,o),
(308,387,o),
(154,386,cs),
(0,385,l),
(-10,358,o),
(-10,332,o),
(0,305,c),
(109,305,ls),
(275,305,o),
(425,247,o),
(425,141,cs),
(425,56,o),
(323,-19,o),
(225,-66,c),
(265,-138,l)
);
}
);
width = 615;
}
);
},
{
glyphname = "ten-chor.right";
lastChange = "2021-12-23 04:54:44 +0000";
layers = (
{
layerId = "345C3B08-035B-47C3-B4DB-D514201E7D1B";
shapes = (
{
closed = 1;
nodes = (
(330,63,o),
(454,181,o),
(552,306,c),
(599,306,l),
(609,333,o),
(609,359,o),
(599,386,c),
(536,386,l),
(405,517,o),
(267,626,o),
(84,749,c),
(36,681,l),
(209,564,o),
(337,463,o),
(466,336,c),
(373,220,o),
(263,118,o),
(134,19,c),
(186,-47,l)
);
}
);
width = 599;
}
);
},
{
glyphname = "twenty-chor.right";
lastChange = "2021-12-23 04:54:44 +0000";
layers = (
{
layerId = "345C3B08-035B-47C3-B4DB-D514201E7D1B";
shapes = (
{
closed = 1;
nodes = (
(346,-84,o),
(485,15,o),
(485,141,cs),
(485,215,o),
(440,269,o),
(374,306,c),
(585,306,l),
(595,333,o),
(595,359,o),
(585,386,c),
(402,386,l),
(446,414,o),
(473,451,o),
(473,499,cs),
(473,616,o),
(328,715,o),
(170,761,c),
(140,685,l),
(278,647,o),
(383,574,o),
(383,499,cs),
(383,437,o),
(278,393,o),
(124,386,c),
(63,386,l),
(63,385,l),
(0,385,l),
(0,305,l),
(79,305,ls),
(245,305,o),
(395,247,o),
(395,141,cs),
(395,56,o),
(293,-19,o),
(195,-66,c),
(235,-138,l)
);
}
);
width = 585;
}
);
},
{
glyphname = .notdef;
lastChange = "2021-12-23 04:54:42 +0000";
layers = (
{
layerId = "345C3B08-035B-47C3-B4DB-D514201E7D1B";
shapes = (
{
closed = 1;
nodes = (
(505,0,l),
(505,714,l),
(94,714,l),
(94,0,l)
);
},
{
closed = 1;
nodes = (
(145,663,l),
(454,663,l),
(454,51,l),
(145,51,l)
);
}
);
width = 600;
}
);
},
{
glyphname = "curled_waw-chor.isol";
lastChange = "2021-12-23 05:36:57 +0000";
layers = (
{
layerId = "345C3B08-035B-47C3-B4DB-D514201E7D1B";
shapes = (
{
closed = 1;
nodes = (
(244,217,o),
(339,282,o),
(339,396,cs),
(339,484,o),
(282,560,o),
(173,560,cs),
(135,560,o),
(104,551,o),
(65,533,c),
(96,459,l),
(114,468,o),
(135,474,o),
(157,474,cs),
(208,474,o),
(249,442,o),
(249,393,cs),
(249,339,o),
(198,300,o),
(125,300,c),
(125,220,l)
);
}
);
width = 403;
}
);
},
{
glyphname = "small_aleph-chor.isol";
lastChange = "2021-12-23 04:54:44 +0000";
layers = (
{
layerId = "345C3B08-035B-47C3-B4DB-D514201E7D1B";
shapes = (
{
closed = 1;
nodes = (
(165,275,o),
(238,275,o),
(312,242,c),
(349,317,l),
(258,357,o),
(146,356,o),
(54,316,c),
(99,247,l),
(199,322,o),
(247,410,o),
(272,493,c),
(186,516,l),
(162,436,o),
(123,369,o),
(45,311,c),
(90,242,l)
);
}
